<svg xmlns="http://www.w3.org/2000/svg" xmlns:xlink="http://www.w3.org/1999/xlink" viewBox="0 0 84.87 86.38"><defs><style>.cls-1{fill:url(#Degradado_sin_nombre_9394);}.cls-2{fill:url(#Degradado_sin_nombre_9428);}.cls-3{fill:url(#Degradado_sin_nombre_9423);}.cls-4{fill:url(#Degradado_sin_nombre_225);}.cls-5{fill:url(#Degradado_sin_nombre_225-2);}.cls-6{fill:url(#Degradado_sin_nombre_225-3);}</style><linearGradient id="Degradado_sin_nombre_9394" x1="48.99" y1="23.4" x2="73.16" y2="56.14" gradientUnits="userSpaceOnUse"><stop offset="0" stop-color="#00d47e"/><stop offset="0.15" stop-color="#02d585"/><stop offset="0.35" stop-color="#08d698" stop-opacity="0.99"/><stop offset="0.59" stop-color="#12d8b7" stop-opacity="0.99"/><stop offset="0.84" stop-color="#20dce1" stop-opacity="0.98"/><stop offset="1" stop-color="#2adeff" stop-opacity="0.97"/></linearGradient><linearGradient id="Degradado_sin_nombre_9428" x1="43.03" y1="55.58" x2="80.99" y2="6.01" gradientUnits="userSpaceOnUse"><stop offset="0" stop-color="#00bc7e"/><stop offset="0.22" stop-color="#00bc7f"/><stop offset="0.4" stop-color="#01bd82"/><stop offset="0.54" stop-color="#04c08d"/><stop offset="0.66" stop-color="#0ac49e" stop-opacity="0.99"/><stop offset="0.78" stop-color="#12cbb7" stop-opacity="0.99"/><stop offset="0.89" stop-color="#1dd3d6" stop-opacity="0.98"/><stop offset="1" stop-color="#29ddfd" stop-opacity="0.97"/><stop offset="1" stop-color="#2adeff" stop-opacity="0.97"/></linearGradient><linearGradient id="Degradado_sin_nombre_9423" x1="57.05" y1="38.09" x2="24.88" y2="-23.15" gradientUnits="userSpaceOnUse"><stop offset="0.01" stop-color="#00bc7e"/><stop offset="0.15" stop-color="#03be86"/><stop offset="0.37" stop-color="#0ac49c" stop-opacity="0.99"/><stop offset="0.63" stop-color="#15cdc0" stop-opacity="0.98"/><stop offset="0.92" stop-color="#26daf1" stop-opacity="0.97"/><stop offset="1" stop-color="#2adeff" stop-opacity="0.97"/></linearGradient><linearGradient id="Degradado_sin_nombre_225" x1="16.43" y1="4.99" x2="48.71" y2="90.13" gradientUnits="userSpaceOnUse"><stop offset="0" stop-color="#90145a"/><stop offset="0.15" stop-color="#832d6e"/><stop offset="0.48" stop-color="#636da3" stop-opacity="0.99"/><stop offset="0.95" stop-color="#2fd3f6" stop-opacity="0.97"/><stop offset="1" stop-color="#2adeff" stop-opacity="0.97"/></linearGradient><linearGradient id="Degradado_sin_nombre_225-2" x1="18.69" y1="9.01" x2="43.55" y2="56.83" xlink:href="#Degradado_sin_nombre_225"/><linearGradient id="Degradado_sin_nombre_225-3" x1="-5.82" y1="6.82" x2="41.68" y2="127.87" xlink:href="#Degradado_sin_nombre_225"/></defs><title>Asset 3</title><g id="Layer_2" data-name="Layer 2"><g id="Objects"><path class="cls-1" d="M74.32,59.83h0A17.78,17.78,0,0,1,56.53,42.05V31.49h0A17.79,17.79,0,0,1,74.32,49.27Z"/><path class="cls-2" d="M84.87,10.55h0A17.78,17.78,0,0,1,67.09,28.34H56.53A17.79,17.79,0,0,1,74.32,10.55Z"/><path class="cls-3" d="M35.6,0h0A17.78,17.78,0,0,1,53.38,17.78V28.34h0A17.78,17.78,0,0,1,35.6,10.55Z"/><path class="cls-4" d="M17.66,59.71c-6.86,3.62-2.37,26.77,14.08,26.67A21.58,21.58,0,0,0,53.27,64.85V31.49h0A17.78,17.78,0,0,0,35.49,49.27V59.75a8.9,8.9,0,0,1-8.9,8.9h0a8.9,8.9,0,0,1-8.91-8.9"/><path class="cls-5" d="M26.69,68.65a9,9,0,0,0,8.8-8.8V49A17.66,17.66,0,0,1,53.38,31.49h0V41.8C53.38,67.82,26.69,68.65,26.69,68.65Z"/><path class="cls-6" d="M31.25,86.17C16.81,84,17.78,59.75,17.78,59.75V23.1A17.79,17.79,0,0,0,0,5.31H0v59.6H0A21.62,21.62,0,0,0,21.53,86.38c1.07,0,6.47,0,9.64,0,0,0,1.14,0,1.51,0C32.68,86.35,32.31,86.32,31.25,86.17Z"/></g></g></svg>